<svg xmlns="http://www.w3.org/2000/svg" viewBox="0 0 960 540" role="img">
  <rect width="960" height="540" fill="#ffffff"/>
  <style>
    .title { font: 700 28px system-ui, -apple-system, Segoe UI, sans-serif; fill: #111827; }
    .label { font: 600 17px system-ui, -apple-system, Segoe UI, sans-serif; fill: #1f2937; }
    .small { font: 14px system-ui, -apple-system, Segoe UI, sans-serif; fill: #4b5563; }
    .box { fill: #f8fafc; stroke: #334155; stroke-width: 2; rx: 12; }
    .blue { fill: #dbeafe; stroke: #2563eb; }
    .green { fill: #dcfce7; stroke: #16a34a; }
    .orange { fill: #ffedd5; stroke: #ea580c; }
    .red { fill: #fee2e2; stroke: #dc2626; }
    .purple { fill: #ede9fe; stroke: #7c3aed; }
    .line { stroke: #334155; stroke-width: 3; fill: none; }
    .thin { stroke: #94a3b8; stroke-width: 1.5; fill: none; }
    .arrow { marker-end: url(#arrow); }
  </style>
  <defs>
    <marker id="arrow" markerWidth="10" markerHeight="10" refX="9" refY="3" orient="auto">
      <path d="M0,0 L10,3 L0,6 Z" fill="#334155"/>
    </marker>
  </defs>

  <text x="48" y="48" class="title">Sigmoid Derivative</text>
  <line x1="100" y1="445" x2="860" y2="445" class="line"/>
  <line x1="100" y1="95" x2="100" y2="445" class="line"/>
  <line x1="100" y1="270.0" x2="860" y2="270.0" class="thin"/>
  <line x1="480.0" y1="95" x2="480.0" y2="445" class="thin"/>
  <polyline points="100.0,269.6 104.8,269.6 109.5,269.5 114.2,269.5 119.0,269.5 123.8,269.4 128.5,269.4 133.3,269.3 138.0,269.3 142.8,269.2 147.5,269.2 152.2,269.1 157.0,269.0 161.7,269.0 166.5,268.9 171.2,268.8 176.0,268.7 180.8,268.6 185.5,268.5 190.2,268.4 195.0,268.3 199.8,268.1 204.5,268.0 209.2,267.8 214.0,267.7 218.8,267.5 223.5,267.3 228.2,267.1 233.0,266.9 237.8,266.7 242.5,266.4 247.2,266.2 252.0,265.9 256.8,265.6 261.5,265.3 266.2,264.9 271.0,264.5 275.8,264.1 280.5,263.7 285.2,263.3 290.0,262.8 294.8,262.3 299.5,261.8 304.2,261.2 309.0,260.6 313.8,260.0 318.5,259.3 323.2,258.6 328.0,257.9 332.8,257.1 337.5,256.3 342.2,255.4 347.0,254.5 351.8,253.6 356.5,252.7 361.2,251.7 366.0,250.6 370.8,249.6 375.5,248.5 380.2,247.4 385.0,246.3 389.8,245.1 394.5,244.0 399.2,242.8 404.0,241.7 408.8,240.6 413.5,239.5 418.2,238.4 423.0,237.3 427.8,236.3 432.5,235.3 437.2,234.4 442.0,233.6 446.8,232.8 451.5,232.2 456.2,231.6 461.0,231.1 465.8,230.7 470.5,230.5 475.2,230.3 480.0,230.2 484.8,230.3 489.5,230.5 494.2,230.7 499.0,231.1 503.8,231.6 508.5,232.2 513.2,232.8 518.0,233.6 522.8,234.4 527.5,235.3 532.2,236.3 537.0,237.3 541.8,238.4 546.5,239.5 551.2,240.6 556.0,241.7 560.8,242.8 565.5,244.0 570.2,245.1 575.0,246.3 579.8,247.4 584.5,248.5 589.2,249.6 594.0,250.6 598.8,251.7 603.5,252.7 608.2,253.6 613.0,254.5 617.8,255.4 622.5,256.3 627.2,257.1 632.0,257.9 636.8,258.6 641.5,259.3 646.2,260.0 651.0,260.6 655.8,261.2 660.5,261.8 665.2,262.3 670.0,262.8 674.8,263.3 679.5,263.7 684.2,264.1 689.0,264.5 693.8,264.9 698.5,265.3 703.2,265.6 708.0,265.9 712.8,266.2 717.5,266.4 722.2,266.7 727.0,266.9 731.8,267.1 736.5,267.3 741.2,267.5 746.0,267.7 750.8,267.8 755.5,268.0 760.2,268.1 765.0,268.3 769.8,268.4 774.5,268.5 779.2,268.6 784.0,268.7 788.8,268.8 793.5,268.9 798.2,269.0 803.0,269.0 807.8,269.1 812.5,269.2 817.2,269.2 822.0,269.3 826.8,269.3 831.5,269.4 836.2,269.4 841.0,269.5 845.8,269.5 850.5,269.5 855.2,269.6 860.0,269.6" fill="none" stroke="#2563eb" stroke-width="5"/>
  <text x="840" y="485" text-anchor="end" class="small">input x</text>
  <text x="35" y="115" class="small">gradient</text>
  <text x="110" y="500" class="small">Generated locally from a deterministic mathematical function.</text>

</svg>
