<svg xmlns="http://www.w3.org/2000/svg" viewBox="0 0 960 540" role="img">
  <rect width="960" height="540" fill="#ffffff"/>
  <style>
    .title { font: 700 28px system-ui, -apple-system, Segoe UI, sans-serif; fill: #111827; }
    .label { font: 600 17px system-ui, -apple-system, Segoe UI, sans-serif; fill: #1f2937; }
    .small { font: 14px system-ui, -apple-system, Segoe UI, sans-serif; fill: #4b5563; }
    .box { fill: #f8fafc; stroke: #334155; stroke-width: 2; rx: 12; }
    .blue { fill: #dbeafe; stroke: #2563eb; }
    .green { fill: #dcfce7; stroke: #16a34a; }
    .orange { fill: #ffedd5; stroke: #ea580c; }
    .red { fill: #fee2e2; stroke: #dc2626; }
    .purple { fill: #ede9fe; stroke: #7c3aed; }
    .line { stroke: #334155; stroke-width: 3; fill: none; }
    .thin { stroke: #94a3b8; stroke-width: 1.5; fill: none; }
    .arrow { marker-end: url(#arrow); }
  </style>
  <defs>
    <marker id="arrow" markerWidth="10" markerHeight="10" refX="9" refY="3" orient="auto">
      <path d="M0,0 L10,3 L0,6 Z" fill="#334155"/>
    </marker>
  </defs>

  <text x="48" y="48" class="title">Hyperbolic Tangent</text>
  <line x1="100" y1="445" x2="860" y2="445" class="line"/>
  <line x1="100" y1="95" x2="100" y2="445" class="line"/>
  <line x1="100" y1="270.0" x2="860" y2="270.0" class="thin"/>
  <line x1="480.0" y1="95" x2="480.0" y2="445" class="thin"/>
  <polyline points="100.0,429.1 104.8,429.1 109.5,429.1 114.2,429.1 119.0,429.1 123.8,429.1 128.5,429.1 133.3,429.1 138.0,429.1 142.8,429.1 147.5,429.1 152.2,429.1 157.0,429.1 161.7,429.1 166.5,429.1 171.2,429.1 176.0,429.1 180.8,429.1 185.5,429.1 190.2,429.1 195.0,429.1 199.8,429.0 204.5,429.0 209.2,429.0 214.0,429.0 218.8,429.0 223.5,429.0 228.2,429.0 233.0,429.0 237.8,428.9 242.5,428.9 247.2,428.9 252.0,428.9 256.8,428.8 261.5,428.8 266.2,428.7 271.0,428.7 275.8,428.6 280.5,428.5 285.2,428.4 290.0,428.3 294.8,428.2 299.5,428.0 304.2,427.9 309.0,427.7 313.8,427.4 318.5,427.2 323.2,426.9 328.0,426.5 332.8,426.1 337.5,425.6 342.2,425.0 347.0,424.4 351.8,423.6 356.5,422.8 361.2,421.8 366.0,420.6 370.8,419.3 375.5,417.8 380.2,416.0 385.0,414.0 389.8,411.7 394.5,409.1 399.2,406.0 404.0,402.6 408.8,398.8 413.5,394.4 418.2,389.5 423.0,384.0 427.8,377.8 432.5,371.0 437.2,363.6 442.0,355.4 446.8,346.6 451.5,337.1 456.2,327.0 461.0,316.3 465.8,305.2 470.5,293.7 475.2,281.9 480.0,270.0 484.8,258.1 489.5,246.3 494.2,234.8 499.0,223.7 503.8,213.0 508.5,202.9 513.2,193.4 518.0,184.6 522.8,176.4 527.5,169.0 532.2,162.2 537.0,156.0 541.8,150.5 546.5,145.6 551.2,141.2 556.0,137.4 560.8,134.0 565.5,130.9 570.2,128.3 575.0,126.0 579.8,124.0 584.5,122.2 589.2,120.7 594.0,119.4 598.8,118.2 603.5,117.2 608.2,116.4 613.0,115.6 617.8,115.0 622.5,114.4 627.2,113.9 632.0,113.5 636.8,113.1 641.5,112.8 646.2,112.6 651.0,112.3 655.8,112.1 660.5,112.0 665.2,111.8 670.0,111.7 674.8,111.6 679.5,111.5 684.2,111.4 689.0,111.3 693.8,111.3 698.5,111.2 703.2,111.2 708.0,111.1 712.8,111.1 717.5,111.1 722.2,111.1 727.0,111.0 731.8,111.0 736.5,111.0 741.2,111.0 746.0,111.0 750.8,111.0 755.5,111.0 760.2,111.0 765.0,110.9 769.8,110.9 774.5,110.9 779.2,110.9 784.0,110.9 788.8,110.9 793.5,110.9 798.2,110.9 803.0,110.9 807.8,110.9 812.5,110.9 817.2,110.9 822.0,110.9 826.8,110.9 831.5,110.9 836.2,110.9 841.0,110.9 845.8,110.9 850.5,110.9 855.2,110.9 860.0,110.9" fill="none" stroke="#2563eb" stroke-width="5"/>
  <text x="840" y="485" text-anchor="end" class="small">input x</text>
  <text x="35" y="115" class="small">activation</text>
  <text x="110" y="500" class="small">Generated locally from a deterministic mathematical function.</text>

</svg>
