<svg xmlns="http://www.w3.org/2000/svg" viewBox="0 0 960 540" role="img">
  <rect width="960" height="540" fill="#ffffff"/>
  <style>
    .title { font: 700 28px system-ui, -apple-system, Segoe UI, sans-serif; fill: #111827; }
    .label { font: 600 17px system-ui, -apple-system, Segoe UI, sans-serif; fill: #1f2937; }
    .small { font: 14px system-ui, -apple-system, Segoe UI, sans-serif; fill: #4b5563; }
    .box { fill: #f8fafc; stroke: #334155; stroke-width: 2; rx: 12; }
    .blue { fill: #dbeafe; stroke: #2563eb; }
    .green { fill: #dcfce7; stroke: #16a34a; }
    .orange { fill: #ffedd5; stroke: #ea580c; }
    .red { fill: #fee2e2; stroke: #dc2626; }
    .purple { fill: #ede9fe; stroke: #7c3aed; }
    .line { stroke: #334155; stroke-width: 3; fill: none; }
    .thin { stroke: #94a3b8; stroke-width: 1.5; fill: none; }
    .arrow { marker-end: url(#arrow); }
  </style>
  <defs>
    <marker id="arrow" markerWidth="10" markerHeight="10" refX="9" refY="3" orient="auto">
      <path d="M0,0 L10,3 L0,6 Z" fill="#334155"/>
    </marker>
  </defs>

  <text x="48" y="48" class="title">Synthetic Sine Wave for Forecasting</text>
  <line x1="100" y1="445" x2="860" y2="445" class="line"/>
  <line x1="100" y1="95" x2="100" y2="445" class="line"/>
  <line x1="100" y1="270.0" x2="860" y2="270.0" class="thin"/>
  <line x1="480.0" y1="95" x2="480.0" y2="445" class="thin"/>
  <polyline points="100.0,225.5 104.8,214.2 109.5,203.2 114.2,192.6 119.0,182.4 123.8,172.7 128.5,163.5 133.3,155.0 138.0,147.1 142.8,139.8 147.5,133.4 152.2,127.6 157.0,122.7 161.7,118.6 166.5,115.4 171.2,113.0 176.0,111.5 180.8,110.9 185.5,111.2 190.2,112.4 195.0,114.5 199.8,117.4 204.5,121.2 209.2,125.9 214.0,131.3 218.8,137.6 223.5,144.6 228.2,152.2 233.0,160.6 237.8,169.5 242.5,179.1 247.2,189.1 252.0,199.6 256.8,210.5 261.5,221.7 266.2,233.2 271.0,244.9 275.8,256.7 280.5,268.7 285.2,280.6 290.0,292.5 294.8,304.2 299.5,315.7 304.2,327.0 309.0,338.0 313.8,348.6 318.5,358.7 323.2,368.4 328.0,377.5 332.8,385.9 337.5,393.8 342.2,400.9 347.0,407.3 351.8,413.0 356.5,417.8 361.2,421.8 366.0,424.9 370.8,427.2 375.5,428.6 380.2,429.1 385.0,428.7 389.8,427.4 394.5,425.2 399.2,422.2 404.0,418.3 408.8,413.5 413.5,408.0 418.2,401.7 423.0,394.6 427.8,386.9 432.5,378.4 437.2,369.4 442.0,359.8 446.8,349.7 451.5,339.2 456.2,328.3 461.0,317.0 465.8,305.5 470.5,293.8 475.2,281.9 480.0,270.0 484.8,258.1 489.5,246.2 494.2,234.5 499.0,223.0 503.8,211.7 508.5,200.8 513.2,190.3 518.0,180.2 522.8,170.6 527.5,161.6 532.2,153.1 537.0,145.4 541.8,138.3 546.5,132.0 551.2,126.5 556.0,121.7 560.8,117.8 565.5,114.8 570.2,112.6 575.0,111.3 579.8,110.9 584.5,111.4 589.2,112.8 594.0,115.1 598.8,118.2 603.5,122.2 608.2,127.0 613.0,132.7 617.8,139.1 622.5,146.2 627.2,154.1 632.0,162.5 636.8,171.6 641.5,181.3 646.2,191.4 651.0,202.0 655.8,213.0 660.5,224.3 665.2,235.8 670.0,247.5 674.8,259.4 679.5,271.3 684.2,283.3 689.0,295.1 693.8,306.8 698.5,318.3 703.2,329.5 708.0,340.4 712.8,350.9 717.5,360.9 722.2,370.5 727.0,379.4 731.8,387.8 736.5,395.4 741.2,402.4 746.0,408.7 750.8,414.1 755.5,418.8 760.2,422.6 765.0,425.5 769.8,427.6 774.5,428.8 779.2,429.1 784.0,428.5 788.8,427.0 793.5,424.6 798.2,421.4 803.0,417.3 807.8,412.4 812.5,406.6 817.2,400.2 822.0,392.9 826.8,385.0 831.5,376.5 836.2,367.3 841.0,357.6 845.8,347.4 850.5,336.8 855.2,325.8 860.0,314.5" fill="none" stroke="#2563eb" stroke-width="5"/>
  <text x="840" y="485" text-anchor="end" class="small">input x</text>
  <text x="35" y="115" class="small">value</text>
  <text x="110" y="500" class="small">Generated locally from a deterministic mathematical function.</text>

</svg>
