<svg xmlns="http://www.w3.org/2000/svg" viewBox="0 0 960 540" role="img">
  <rect width="960" height="540" fill="#ffffff"/>
  <style>
    .title { font: 700 28px system-ui, -apple-system, Segoe UI, sans-serif; fill: #111827; }
    .label { font: 600 17px system-ui, -apple-system, Segoe UI, sans-serif; fill: #1f2937; }
    .small { font: 14px system-ui, -apple-system, Segoe UI, sans-serif; fill: #4b5563; }
    .box { fill: #f8fafc; stroke: #334155; stroke-width: 2; rx: 12; }
    .blue { fill: #dbeafe; stroke: #2563eb; }
    .green { fill: #dcfce7; stroke: #16a34a; }
    .orange { fill: #ffedd5; stroke: #ea580c; }
    .red { fill: #fee2e2; stroke: #dc2626; }
    .purple { fill: #ede9fe; stroke: #7c3aed; }
    .line { stroke: #334155; stroke-width: 3; fill: none; }
    .thin { stroke: #94a3b8; stroke-width: 1.5; fill: none; }
    .arrow { marker-end: url(#arrow); }
  </style>
  <defs>
    <marker id="arrow" markerWidth="10" markerHeight="10" refX="9" refY="3" orient="auto">
      <path d="M0,0 L10,3 L0,6 Z" fill="#334155"/>
    </marker>
  </defs>

  <text x="48" y="48" class="title">ReLU Function</text>
  <line x1="100" y1="445" x2="860" y2="445" class="line"/>
  <line x1="100" y1="95" x2="100" y2="445" class="line"/>
  <line x1="100" y1="390.8" x2="860" y2="390.8" class="thin"/>
  <line x1="480.0" y1="95" x2="480.0" y2="445" class="thin"/>
  <polyline points="100.0,390.8 104.8,390.8 109.5,390.8 114.2,390.8 119.0,390.8 123.8,390.8 128.5,390.8 133.3,390.8 138.0,390.8 142.8,390.8 147.5,390.8 152.2,390.8 157.0,390.8 161.7,390.8 166.5,390.8 171.2,390.8 176.0,390.8 180.8,390.8 185.5,390.8 190.2,390.8 195.0,390.8 199.8,390.8 204.5,390.8 209.2,390.8 214.0,390.8 218.8,390.8 223.5,390.8 228.2,390.8 233.0,390.8 237.8,390.8 242.5,390.8 247.2,390.8 252.0,390.8 256.8,390.8 261.5,390.8 266.2,390.8 271.0,390.8 275.8,390.8 280.5,390.8 285.2,390.8 290.0,390.8 294.8,390.8 299.5,390.8 304.2,390.8 309.0,390.8 313.8,390.8 318.5,390.8 323.2,390.8 328.0,390.8 332.8,390.8 337.5,390.8 342.2,390.8 347.0,390.8 351.8,390.8 356.5,390.8 361.2,390.8 366.0,390.8 370.8,390.8 375.5,390.8 380.2,390.8 385.0,390.8 389.8,390.8 394.5,390.8 399.2,390.8 404.0,390.8 408.8,390.8 413.5,390.8 418.2,390.8 423.0,390.8 427.8,390.8 432.5,390.8 437.2,390.8 442.0,390.8 446.8,390.8 451.5,390.8 456.2,390.8 461.0,390.8 465.8,390.8 470.5,390.8 475.2,390.8 480.0,390.8 484.8,387.1 489.5,383.4 494.2,379.7 499.0,376.0 503.8,372.3 508.5,368.6 513.2,364.9 518.0,361.2 522.8,357.5 527.5,353.8 532.2,350.1 537.0,346.4 541.8,342.7 546.5,339.0 551.2,335.3 556.0,331.6 560.8,327.9 565.5,324.2 570.2,320.5 575.0,316.8 579.8,313.1 584.5,309.4 589.2,305.7 594.0,302.0 598.8,298.3 603.5,294.6 608.2,291.0 613.0,287.3 617.8,283.6 622.5,279.9 627.2,276.2 632.0,272.5 636.8,268.8 641.5,265.1 646.2,261.4 651.0,257.7 655.8,254.0 660.5,250.3 665.2,246.6 670.0,242.9 674.8,239.2 679.5,235.5 684.2,231.8 689.0,228.1 693.8,224.4 698.5,220.7 703.2,217.0 708.0,213.3 712.8,209.6 717.5,205.9 722.2,202.2 727.0,198.5 731.8,194.8 736.5,191.1 741.2,187.4 746.0,183.7 750.8,180.0 755.5,176.3 760.2,172.6 765.0,168.9 769.8,165.2 774.5,161.5 779.2,157.9 784.0,154.2 788.8,150.5 793.5,146.8 798.2,143.1 803.0,139.4 807.8,135.7 812.5,132.0 817.2,128.3 822.0,124.6 826.8,120.9 831.5,117.2 836.2,113.5 841.0,109.8 845.8,106.1 850.5,102.4 855.2,98.7 860.0,95.0" fill="none" stroke="#2563eb" stroke-width="5"/>
  <text x="840" y="485" text-anchor="end" class="small">input x</text>
  <text x="35" y="115" class="small">activation</text>
  <text x="110" y="500" class="small">Generated locally from a deterministic mathematical function.</text>

</svg>
