<svg xmlns="http://www.w3.org/2000/svg" viewBox="0 0 960 540" role="img">
  <rect width="960" height="540" fill="#ffffff"/>
  <style>
    .title { font: 700 28px system-ui, -apple-system, Segoe UI, sans-serif; fill: #111827; }
    .label { font: 600 17px system-ui, -apple-system, Segoe UI, sans-serif; fill: #1f2937; }
    .small { font: 14px system-ui, -apple-system, Segoe UI, sans-serif; fill: #4b5563; }
    .box { fill: #f8fafc; stroke: #334155; stroke-width: 2; rx: 12; }
    .blue { fill: #dbeafe; stroke: #2563eb; }
    .green { fill: #dcfce7; stroke: #16a34a; }
    .orange { fill: #ffedd5; stroke: #ea580c; }
    .red { fill: #fee2e2; stroke: #dc2626; }
    .purple { fill: #ede9fe; stroke: #7c3aed; }
    .line { stroke: #334155; stroke-width: 3; fill: none; }
    .thin { stroke: #94a3b8; stroke-width: 1.5; fill: none; }
    .arrow { marker-end: url(#arrow); }
  </style>
  <defs>
    <marker id="arrow" markerWidth="10" markerHeight="10" refX="9" refY="3" orient="auto">
      <path d="M0,0 L10,3 L0,6 Z" fill="#334155"/>
    </marker>
  </defs>

  <text x="48" y="48" class="title">Sigmoid Function</text>
  <line x1="100" y1="445" x2="860" y2="445" class="line"/>
  <line x1="100" y1="95" x2="100" y2="445" class="line"/>
  <line x1="100" y1="270.0" x2="860" y2="270.0" class="thin"/>
  <line x1="480.0" y1="95" x2="480.0" y2="445" class="thin"/>
  <polyline points="100.0,269.6 104.8,269.6 109.5,269.5 114.2,269.5 119.0,269.5 123.8,269.4 128.5,269.4 133.3,269.3 138.0,269.3 142.8,269.2 147.5,269.2 152.2,269.1 157.0,269.0 161.7,269.0 166.5,268.9 171.2,268.8 176.0,268.7 180.8,268.6 185.5,268.5 190.2,268.4 195.0,268.3 199.8,268.1 204.5,268.0 209.2,267.8 214.0,267.6 218.8,267.5 223.5,267.3 228.2,267.1 233.0,266.8 237.8,266.6 242.5,266.3 247.2,266.1 252.0,265.8 256.8,265.4 261.5,265.1 266.2,264.7 271.0,264.3 275.8,263.9 280.5,263.5 285.2,263.0 290.0,262.5 294.8,261.9 299.5,261.3 304.2,260.7 309.0,260.0 313.8,259.3 318.5,258.5 323.2,257.6 328.0,256.8 332.8,255.8 337.5,254.8 342.2,253.8 347.0,252.6 351.8,251.4 356.5,250.2 361.2,248.8 366.0,247.4 370.8,245.9 375.5,244.4 380.2,242.7 385.0,241.0 389.8,239.2 394.5,237.2 399.2,235.3 404.0,233.2 408.8,231.0 413.5,228.8 418.2,226.4 423.0,224.0 427.8,221.5 432.5,219.0 437.2,216.3 442.0,213.6 446.8,210.9 451.5,208.1 456.2,205.2 461.0,202.3 465.8,199.4 470.5,196.4 475.2,193.4 480.0,190.5 484.8,187.5 489.5,184.5 494.2,181.5 499.0,178.6 503.8,175.7 508.5,172.9 513.2,170.0 518.0,167.3 522.8,164.6 527.5,161.9 532.2,159.4 537.0,156.9 541.8,154.5 546.5,152.1 551.2,149.9 556.0,147.7 560.8,145.7 565.5,143.7 570.2,141.8 575.0,139.9 579.8,138.2 584.5,136.5 589.2,135.0 594.0,133.5 598.8,132.1 603.5,130.7 608.2,129.5 613.0,128.3 617.8,127.1 622.5,126.1 627.2,125.1 632.0,124.1 636.8,123.3 641.5,122.4 646.2,121.7 651.0,120.9 655.8,120.2 660.5,119.6 665.2,119.0 670.0,118.5 674.8,117.9 679.5,117.4 684.2,117.0 689.0,116.6 693.8,116.2 698.5,115.8 703.2,115.5 708.0,115.1 712.8,114.8 717.5,114.6 722.2,114.3 727.0,114.1 731.8,113.8 736.5,113.6 741.2,113.4 746.0,113.3 750.8,113.1 755.5,112.9 760.2,112.8 765.0,112.7 769.8,112.5 774.5,112.4 779.2,112.3 784.0,112.2 788.8,112.1 793.5,112.0 798.2,111.9 803.0,111.9 807.8,111.8 812.5,111.7 817.2,111.7 822.0,111.6 826.8,111.6 831.5,111.5 836.2,111.5 841.0,111.4 845.8,111.4 850.5,111.4 855.2,111.3 860.0,111.3" fill="none" stroke="#2563eb" stroke-width="5"/>
  <text x="840" y="485" text-anchor="end" class="small">input x</text>
  <text x="35" y="115" class="small">probability</text>
  <text x="110" y="500" class="small">Generated locally from a deterministic mathematical function.</text>

</svg>
