<svg xmlns="http://www.w3.org/2000/svg" width="1100" height="620" viewBox="0 0 1100 620" role="img" aria-labelledby="title desc">
<title id="title">t-SNE embedding of MNIST</title><desc id="desc">Local tutorial diagram</desc>
<defs>
  <style><![CDATA[
    .bg{fill:#f6f8fa} .panel{fill:#fff;stroke:#d0d7de;stroke-width:2} .axis{stroke:#8c959f;stroke-width:2} .grid{stroke:#eaeef2;stroke-width:1} .blue{stroke:#0969da;fill:none;stroke-width:5;stroke-linecap:round;stroke-linejoin:round} .purple{stroke:#8250df;fill:none;stroke-width:5;stroke-linecap:round;stroke-linejoin:round} .green{stroke:#1a7f37;fill:none;stroke-width:5;stroke-linecap:round;stroke-linejoin:round} .red{stroke:#cf222e;fill:none;stroke-width:5;stroke-linecap:round;stroke-linejoin:round} .box{fill:#f6f8fa;stroke:#d0d7de;stroke-width:2;rx:12} .bfill{fill:#ddf4ff;stroke:#0969da;stroke-width:2;rx:10} .pfill{fill:#f1e5ff;stroke:#8250df;stroke-width:2;rx:10} .gfill{fill:#dafbe1;stroke:#1a7f37;stroke-width:2;rx:10} .afill{fill:#fff8c5;stroke:#9a6700;stroke-width:2;rx:10} text{font-family:-apple-system,BlinkMacSystemFont,"Segoe UI",Arial,sans-serif;fill:#1f2328} .muted{fill:#59636e} .mono{font-family:ui-monospace,SFMono-Regular,Menlo,Consolas,monospace}
  ]]></style>
</defs>
<rect class="bg" width="1100" height="620"/><rect class="panel" x="42" y="42" width="1016" height="536" rx="18"/>
<text x="550" y="92" text-anchor="middle" font-size="32" font-weight="700">t-SNE embedding of MNIST</text>
<text x="550" y="145" text-anchor="middle" font-size="21" class="muted">High-dimensional digit images projected into two dimensions form class clusters.</text><circle cx="285.0" cy="250.0" r="5" fill="#0969da" opacity="0.75"/><circle cx="234.4" cy="277.8" r="5" fill="#0969da" opacity="0.75"/><circle cx="249.2" cy="242.8" r="5" fill="#0969da" opacity="0.75"/><circle cx="283.3" cy="224.1" r="5" fill="#0969da" opacity="0.75"/><circle cx="226.6" cy="263.8" r="5" fill="#0969da" opacity="0.75"/><circle cx="260.2" cy="272.4" r="5" fill="#0969da" opacity="0.75"/><circle cx="278.2" cy="230.4" r="5" fill="#0969da" opacity="0.75"/><circle cx="221.6" cy="232.7" r="5" fill="#0969da" opacity="0.75"/><circle cx="271.1" cy="274.1" r="5" fill="#0969da" opacity="0.75"/><circle cx="270.3" cy="261.1" r="5" fill="#0969da" opacity="0.75"/><circle cx="220.0" cy="223.1" r="5" fill="#0969da" opacity="0.75"/><circle cx="280.8" cy="245.8" r="5" fill="#0969da" opacity="0.75"/><circle cx="260.5" cy="278.0" r="5" fill="#0969da" opacity="0.75"/><circle cx="221.8" cy="247.0" r="5" fill="#0969da" opacity="0.75"/><circle cx="288.6" cy="222.8" r="5" fill="#0969da" opacity="0.75"/><circle cx="249.5" cy="260.1" r="5" fill="#0969da" opacity="0.75"/><circle cx="227.0" cy="274.6" r="5" fill="#0969da" opacity="0.75"/><circle cx="293.4" cy="233.6" r="5" fill="#0969da" opacity="0.75"/><text x="250" y="308" text-anchor="middle" font-size="18" class="mono">0</text><circle cx="418.9" cy="273.6" r="5" fill="#8250df" opacity="0.75"/><circle cx="370.1" cy="262.0" r="5" fill="#8250df" opacity="0.75"/><circle cx="432.2" cy="223.4" r="5" fill="#8250df" opacity="0.75"/><circle cx="408.8" cy="244.9" r="5" fill="#8250df" opacity="0.75"/><circle cx="372.4" cy="278.0" r="5" fill="#8250df" opacity="0.75"/><circle cx="439.5" cy="247.9" r="5" fill="#8250df" opacity="0.75"/><circle cx="397.8" cy="222.6" r="5" fill="#8250df" opacity="0.75"/><circle cx="378.1" cy="259.2" r="5" fill="#8250df" opacity="0.75"/><circle cx="443.9" cy="275.1" r="5" fill="#8250df" opacity="0.75"/><circle cx="387.0" cy="234.4" r="5" fill="#8250df" opacity="0.75"/><circle cx="386.4" cy="229.0" r="5" fill="#8250df" opacity="0.75"/><circle cx="444.9" cy="271.0" r="5" fill="#8250df" opacity="0.75"/><circle cx="377.5" cy="265.6" r="5" fill="#8250df" opacity="0.75"/><circle cx="396.5" cy="224.9" r="5" fill="#8250df" opacity="0.75"/><circle cx="442.5" cy="240.9" r="5" fill="#8250df" opacity="0.75"/><circle cx="370.3" cy="277.4" r="5" fill="#8250df" opacity="0.75"/><circle cx="407.5" cy="252.1" r="5" fill="#8250df" opacity="0.75"/><circle cx="436.7" cy="222.0" r="5" fill="#8250df" opacity="0.75"/><text x="400" y="308" text-anchor="middle" font-size="18" class="mono">1</text><circle cx="535.4" cy="275.5" r="5" fill="#1a7f37" opacity="0.75"/><circle cx="537.8" cy="235.2" r="5" fill="#1a7f37" opacity="0.75"/><circle cx="594.8" cy="228.4" r="5" fill="#1a7f37" opacity="0.75"/><circle cx="526.2" cy="270.4" r="5" fill="#1a7f37" opacity="0.75"/><circle cx="548.2" cy="266.4" r="5" fill="#1a7f37" opacity="0.75"/><circle cx="591.8" cy="225.4" r="5" fill="#1a7f37" opacity="0.75"/><circle cx="519.4" cy="240.0" r="5" fill="#1a7f37" opacity="0.75"/><circle cx="559.2" cy="277.2" r="5" fill="#1a7f37" opacity="0.75"/><circle cx="585.6" cy="253.0" r="5" fill="#1a7f37" opacity="0.75"/><circle cx="515.6" cy="222.0" r="5" fill="#1a7f37" opacity="0.75"/><circle cx="569.8" cy="254.2" r="5" fill="#1a7f37" opacity="0.75"/><circle cx="576.9" cy="276.9" r="5" fill="#1a7f37" opacity="0.75"/><circle cx="515.3" cy="238.9" r="5" fill="#1a7f37" opacity="0.75"/><circle cx="579.0" cy="226.0" r="5" fill="#1a7f37" opacity="0.75"/><circle cx="566.5" cy="267.3" r="5" fill="#1a7f37" opacity="0.75"/><circle cx="518.4" cy="269.6" r="5" fill="#1a7f37" opacity="0.75"/><circle cx="585.7" cy="227.6" r="5" fill="#1a7f37" opacity="0.75"/><circle cx="555.5" cy="236.2" r="5" fill="#1a7f37" opacity="0.75"/><text x="550" y="308" text-anchor="middle" font-size="18" class="mono">2</text><circle cx="665.4" cy="254.0" r="5" fill="#cf222e" opacity="0.75"/><circle cx="721.4" cy="222.0" r="5" fill="#cf222e" opacity="0.75"/><circle cx="725.3" cy="253.3" r="5" fill="#cf222e" opacity="0.75"/><circle cx="665.5" cy="277.2" r="5" fill="#cf222e" opacity="0.75"/><circle cx="730.2" cy="239.7" r="5" fill="#cf222e" opacity="0.75"/><circle cx="714.8" cy="225.5" r="5" fill="#cf222e" opacity="0.75"/><circle cx="669.2" cy="266.6" r="5" fill="#cf222e" opacity="0.75"/><circle cx="736.5" cy="270.2" r="5" fill="#cf222e" opacity="0.75"/><circle cx="703.7" cy="228.2" r="5" fill="#cf222e" opacity="0.75"/><circle cx="675.8" cy="235.4" r="5" fill="#cf222e" opacity="0.75"/><circle cx="739.7" cy="275.6" r="5" fill="#cf222e" opacity="0.75"/><circle cx="693.3" cy="258.0" r="5" fill="#cf222e" opacity="0.75"/><circle cx="684.9" cy="222.4" r="5" fill="#cf222e" opacity="0.75"/><circle cx="739.4" cy="249.1" r="5" fill="#cf222e" opacity="0.75"/><circle cx="684.6" cy="277.9" r="5" fill="#cf222e" opacity="0.75"/><circle cx="695.5" cy="243.7" r="5" fill="#cf222e" opacity="0.75"/><circle cx="735.7" cy="223.7" r="5" fill="#cf222e" opacity="0.75"/><circle cx="678.3" cy="263.0" r="5" fill="#cf222e" opacity="0.75"/><text x="700" y="308" text-anchor="middle" font-size="18" class="mono">3</text><circle cx="827.1" cy="228.8" r="5" fill="#9a6700" opacity="0.75"/><circle cx="889.9" cy="234.6" r="5" fill="#9a6700" opacity="0.75"/><circle cx="841.8" cy="275.2" r="5" fill="#9a6700" opacity="0.75"/><circle cx="836.5" cy="258.9" r="5" fill="#9a6700" opacity="0.75"/><circle cx="889.0" cy="222.5" r="5" fill="#9a6700" opacity="0.75"/><circle cx="833.4" cy="248.1" r="5" fill="#9a6700" opacity="0.75"/><circle cx="847.2" cy="277.9" r="5" fill="#9a6700" opacity="0.75"/><circle cx="884.8" cy="244.7" r="5" fill="#9a6700" opacity="0.75"/><circle cx="827.6" cy="223.4" r="5" fill="#9a6700" opacity="0.75"/><circle cx="858.3" cy="262.2" r="5" fill="#9a6700" opacity="0.75"/><circle cx="877.6" cy="273.4" r="5" fill="#9a6700" opacity="0.75"/><circle cx="825.1" cy="231.8" r="5" fill="#9a6700" opacity="0.75"/><circle cx="868.4" cy="231.3" r="5" fill="#9a6700" opacity="0.75"/><circle cx="868.2" cy="273.1" r="5" fill="#9a6700" opacity="0.75"/><circle cx="826.0" cy="262.8" r="5" fill="#9a6700" opacity="0.75"/><circle cx="876.8" cy="223.7" r="5" fill="#9a6700" opacity="0.75"/><circle cx="857.4" cy="244.0" r="5" fill="#9a6700" opacity="0.75"/><circle cx="830.3" cy="277.9" r="5" fill="#9a6700" opacity="0.75"/><text x="850" y="308" text-anchor="middle" font-size="18" class="mono">4</text><circle cx="259.9" cy="363.2" r="5" fill="#bf3989" opacity="0.75"/><circle cx="276.3" cy="401.3" r="5" fill="#bf3989" opacity="0.75"/><circle cx="225.0" cy="413.9" r="5" fill="#bf3989" opacity="0.75"/><circle cx="269.9" cy="372.5" r="5" fill="#bf3989" opacity="0.75"/><circle cx="266.6" cy="370.6" r="5" fill="#bf3989" opacity="0.75"/><circle cx="226.5" cy="412.5" r="5" fill="#bf3989" opacity="0.75"/><circle cx="277.9" cy="403.6" r="5" fill="#bf3989" opacity="0.75"/><circle cx="255.7" cy="364.0" r="5" fill="#bf3989" opacity="0.75"/><circle cx="231.3" cy="383.1" r="5" fill="#bf3989" opacity="0.75"/><circle cx="283.1" cy="417.8" r="5" fill="#bf3989" opacity="0.75"/><circle cx="244.8" cy="389.8" r="5" fill="#bf3989" opacity="0.75"/><circle cx="239.0" cy="362.3" r="5" fill="#bf3989" opacity="0.75"/><circle cx="285.0" cy="397.4" r="5" fill="#bf3989" opacity="0.75"/><circle cx="234.9" cy="415.8" r="5" fill="#bf3989" opacity="0.75"/><circle cx="248.7" cy="375.9" r="5" fill="#bf3989" opacity="0.75"/><circle cx="283.4" cy="367.8" r="5" fill="#bf3989" opacity="0.75"/><circle cx="226.9" cy="409.8" r="5" fill="#bf3989" opacity="0.75"/><circle cx="259.6" cy="407.1" r="5" fill="#bf3989" opacity="0.75"/><text x="250" y="448" text-anchor="middle" font-size="18" class="mono">5</text><circle cx="433.6" cy="382.2" r="5" fill="#57606a" opacity="0.75"/><circle cx="393.1" cy="417.7" r="5" fill="#57606a" opacity="0.75"/><circle cx="390.4" cy="390.7" r="5" fill="#57606a" opacity="0.75"/><circle cx="435.0" cy="362.2" r="5" fill="#57606a" opacity="0.75"/><circle cx="383.5" cy="396.5" r="5" fill="#57606a" opacity="0.75"/><circle cx="400.4" cy="416.2" r="5" fill="#57606a" opacity="0.75"/><circle cx="432.9" cy="376.8" r="5" fill="#57606a" opacity="0.75"/><circle cx="375.9" cy="367.2" r="5" fill="#57606a" opacity="0.75"/><circle cx="411.3" cy="409.1" r="5" fill="#57606a" opacity="0.75"/><circle cx="427.5" cy="407.8" r="5" fill="#57606a" opacity="0.75"/><circle cx="371.3" cy="366.3" r="5" fill="#57606a" opacity="0.75"/><circle cx="422.2" cy="378.3" r="5" fill="#57606a" opacity="0.75"/><circle cx="419.4" cy="416.7" r="5" fill="#57606a" opacity="0.75"/><circle cx="370.0" cy="394.9" r="5" fill="#57606a" opacity="0.75"/><circle cx="431.8" cy="362.0" r="5" fill="#57606a" opacity="0.75"/><circle cx="409.3" cy="392.4" r="5" fill="#57606a" opacity="0.75"/><circle cx="372.2" cy="417.4" r="5" fill="#57606a" opacity="0.75"/><circle cx="439.2" cy="380.6" r="5" fill="#57606a" opacity="0.75"/><text x="400" y="448" text-anchor="middle" font-size="18" class="mono">6</text><circle cx="576.4" cy="408.4" r="5" fill="#2da44e" opacity="0.75"/><circle cx="520.9" cy="408.6" r="5" fill="#2da44e" opacity="0.75"/><circle cx="573.8" cy="366.8" r="5" fill="#2da44e" opacity="0.75"/><circle cx="567.9" cy="377.4" r="5" fill="#2da44e" opacity="0.75"/><circle cx="520.1" cy="416.4" r="5" fill="#2da44e" opacity="0.75"/><circle cx="583.1" cy="395.8" r="5" fill="#2da44e" opacity="0.75"/><circle cx="557.7" cy="362.1" r="5" fill="#2da44e" opacity="0.75"/><circle cx="522.9" cy="391.4" r="5" fill="#2da44e" opacity="0.75"/><circle cx="590.1" cy="417.5" r="5" fill="#2da44e" opacity="0.75"/><circle cx="546.6" cy="381.5" r="5" fill="#2da44e" opacity="0.75"/><circle cx="528.8" cy="364.6" r="5" fill="#2da44e" opacity="0.75"/><circle cx="594.2" cy="405.0" r="5" fill="#2da44e" opacity="0.75"/><circle cx="535.9" cy="411.5" r="5" fill="#2da44e" opacity="0.75"/><circle cx="537.4" cy="369.4" r="5" fill="#2da44e" opacity="0.75"/><circle cx="594.8" cy="373.8" r="5" fill="#2da44e" opacity="0.75"/><circle cx="526.7" cy="414.7" r="5" fill="#2da44e" opacity="0.75"/><circle cx="547.7" cy="399.8" r="5" fill="#2da44e" opacity="0.75"/><circle cx="592.0" cy="362.7" r="5" fill="#2da44e" opacity="0.75"/><text x="550" y="448" text-anchor="middle" font-size="18" class="mono">7</text><circle cx="694.9" cy="417.7" r="5" fill="#bc4c00" opacity="0.75"/><circle cx="680.0" cy="382.4" r="5" fill="#bc4c00" opacity="0.75"/><circle cx="744.5" cy="364.3" r="5" fill="#bc4c00" opacity="0.75"/><circle cx="684.4" cy="404.2" r="5" fill="#bc4c00" opacity="0.75"/><circle cx="688.9" cy="412.1" r="5" fill="#bc4c00" opacity="0.75"/><circle cx="744.6" cy="370.1" r="5" fill="#bc4c00" opacity="0.75"/><circle cx="675.4" cy="373.1" r="5" fill="#bc4c00" opacity="0.75"/><circle cx="699.4" cy="414.3" r="5" fill="#bc4c00" opacity="0.75"/><circle cx="741.2" cy="400.7" r="5" fill="#bc4c00" opacity="0.75"/><circle cx="668.9" cy="363.0" r="5" fill="#bc4c00" opacity="0.75"/><circle cx="710.4" cy="386.3" r="5" fill="#bc4c00" opacity="0.75"/><circle cx="734.8" cy="418.0" r="5" fill="#bc4c00" opacity="0.75"/><circle cx="665.4" cy="386.5" r="5" fill="#bc4c00" opacity="0.75"/><circle cx="720.9" cy="362.9" r="5" fill="#bc4c00" opacity="0.75"/><circle cx="725.8" cy="400.5" r="5" fill="#bc4c00" opacity="0.75"/><circle cx="665.4" cy="414.4" r="5" fill="#bc4c00" opacity="0.75"/><circle cx="729.8" cy="373.2" r="5" fill="#bc4c00" opacity="0.75"/><circle cx="715.3" cy="369.9" r="5" fill="#bc4c00" opacity="0.75"/><text x="700" y="448" text-anchor="middle" font-size="18" class="mono">8</text><circle cx="818.1" cy="401.5" r="5" fill="#0a3069" opacity="0.75"/><circle cx="862.1" cy="363.2" r="5" fill="#0a3069" opacity="0.75"/><circle cx="883.5" cy="385.4" r="5" fill="#0a3069" opacity="0.75"/><circle cx="815.2" cy="418.0" r="5" fill="#0a3069" opacity="0.75"/><circle cx="872.4" cy="387.4" r="5" fill="#0a3069" opacity="0.75"/><circle cx="874.3" cy="362.7" r="5" fill="#0a3069" opacity="0.75"/><circle cx="815.8" cy="399.6" r="5" fill="#0a3069" opacity="0.75"/><circle cx="881.0" cy="414.8" r="5" fill="#0a3069" opacity="0.75"/><circle cx="863.6" cy="374.0" r="5" fill="#0a3069" opacity="0.75"/><circle cx="819.7" cy="369.3" r="5" fill="#0a3069" opacity="0.75"/><circle cx="887.0" cy="411.4" r="5" fill="#0a3069" opacity="0.75"/><circle cx="852.6" cy="405.2" r="5" fill="#0a3069" opacity="0.75"/><circle cx="826.7" cy="364.7" r="5" fill="#0a3069" opacity="0.75"/><circle cx="889.8" cy="381.3" r="5" fill="#0a3069" opacity="0.75"/><circle cx="842.3" cy="417.5" r="5" fill="#0a3069" opacity="0.75"/><circle cx="836.0" cy="391.6" r="5" fill="#0a3069" opacity="0.75"/><circle cx="889.2" cy="362.1" r="5" fill="#0a3069" opacity="0.75"/><circle cx="833.8" cy="395.6" r="5" fill="#0a3069" opacity="0.75"/><text x="850" y="448" text-anchor="middle" font-size="18" class="mono">9</text>
</svg>
